<mxfile host="app.diagrams.net" modified="2024-02-25T20:57:25.237Z" agent="Mozilla/5.0 (Windows NT 10.0; Win64; x64; rv:123.0) Gecko/20100101 Firefox/123.0" etag="WMzzfpiPnPsw_Ey_Z9MO" version="23.1.6" type="device">
  <diagram name="Seite-1" id="U4SAC3_4gG_9yvgyrKij">
    <mxGraphModel dx="896" dy="538" grid="1" gridSize="10" guides="1" tooltips="1" connect="1" arrows="1" fold="1" page="1" pageScale="1" pageWidth="827" pageHeight="1169" background="none" math="0" shadow="0">
      <root>
        <mxCell id="0" />
        <mxCell id="1" parent="0" />
        <mxCell id="ice-WWhvAbH2HElDVY2t-12" value="Interpolating" style="text;html=1;align=center;verticalAlign=middle;whiteSpace=wrap;rounded=0;" vertex="1" parent="1">
          <mxGeometry x="120" width="120" height="60" as="geometry" />
        </mxCell>
        <mxCell id="ice-WWhvAbH2HElDVY2t-37" value="" style="group" vertex="1" connectable="0" parent="1">
          <mxGeometry x="120" y="60" width="920" height="220" as="geometry" />
        </mxCell>
        <mxCell id="ice-WWhvAbH2HElDVY2t-2" value="" style="ellipse;whiteSpace=wrap;html=1;aspect=fixed;fillColor=none;" vertex="1" parent="ice-WWhvAbH2HElDVY2t-37">
          <mxGeometry x="880" y="100" width="40" height="40" as="geometry" />
        </mxCell>
        <mxCell id="ice-WWhvAbH2HElDVY2t-3" value="" style="endArrow=open;html=1;rounded=0;entryX=0;entryY=0.5;entryDx=0;entryDy=0;endFill=0;" edge="1" parent="ice-WWhvAbH2HElDVY2t-37" target="ice-WWhvAbH2HElDVY2t-2">
          <mxGeometry width="50" height="50" relative="1" as="geometry">
            <mxPoint x="80" y="120" as="sourcePoint" />
            <mxPoint x="320" y="180" as="targetPoint" />
          </mxGeometry>
        </mxCell>
        <mxCell id="ice-WWhvAbH2HElDVY2t-4" value="" style="ellipse;whiteSpace=wrap;html=1;aspect=fixed;fillColor=none;" vertex="1" parent="ice-WWhvAbH2HElDVY2t-37">
          <mxGeometry x="40" y="100" width="40" height="40" as="geometry" />
        </mxCell>
        <mxCell id="ice-WWhvAbH2HElDVY2t-5" value="" style="ellipse;whiteSpace=wrap;html=1;aspect=fixed;fillColor=none;" vertex="1" parent="ice-WWhvAbH2HElDVY2t-37">
          <mxGeometry x="40" width="40" height="40" as="geometry" />
        </mxCell>
        <mxCell id="ice-WWhvAbH2HElDVY2t-7" value="" style="endArrow=open;html=1;rounded=0;dashed=1;entryX=0;entryY=0.5;entryDx=0;entryDy=0;exitX=0;exitY=0.5;exitDx=0;exitDy=0;endFill=0;" edge="1" parent="ice-WWhvAbH2HElDVY2t-37" source="ice-WWhvAbH2HElDVY2t-34" target="ice-WWhvAbH2HElDVY2t-6">
          <mxGeometry width="50" height="50" relative="1" as="geometry">
            <mxPoint x="840" y="19.600000000000023" as="sourcePoint" />
            <mxPoint x="800" y="19.600000000000023" as="targetPoint" />
          </mxGeometry>
        </mxCell>
        <mxCell id="ice-WWhvAbH2HElDVY2t-8" value="" style="endArrow=open;html=1;rounded=0;exitX=1;exitY=0.5;exitDx=0;exitDy=0;entryX=0;entryY=0.5;entryDx=0;entryDy=0;endFill=0;" edge="1" parent="ice-WWhvAbH2HElDVY2t-37" source="ice-WWhvAbH2HElDVY2t-5" target="ice-WWhvAbH2HElDVY2t-6">
          <mxGeometry width="50" height="50" relative="1" as="geometry">
            <mxPoint x="140" y="20" as="sourcePoint" />
            <mxPoint x="240" y="-80" as="targetPoint" />
          </mxGeometry>
        </mxCell>
        <mxCell id="ice-WWhvAbH2HElDVY2t-11" value="Snapshot" style="text;html=1;align=center;verticalAlign=middle;whiteSpace=wrap;rounded=0;" vertex="1" parent="ice-WWhvAbH2HElDVY2t-37">
          <mxGeometry y="40" width="120" height="60" as="geometry" />
        </mxCell>
        <mxCell id="ice-WWhvAbH2HElDVY2t-6" value="" style="ellipse;whiteSpace=wrap;html=1;aspect=fixed;fillColor=none;" vertex="1" parent="ice-WWhvAbH2HElDVY2t-37">
          <mxGeometry x="800" width="40" height="40" as="geometry" />
        </mxCell>
        <mxCell id="ice-WWhvAbH2HElDVY2t-20" value="" style="endArrow=baseDash;html=1;rounded=0;startArrow=baseDash;startFill=0;endFill=0;" edge="1" parent="ice-WWhvAbH2HElDVY2t-37">
          <mxGeometry width="50" height="50" relative="1" as="geometry">
            <mxPoint x="80" y="200" as="sourcePoint" />
            <mxPoint x="880" y="200" as="targetPoint" />
          </mxGeometry>
        </mxCell>
        <mxCell id="ice-WWhvAbH2HElDVY2t-21" value="343.2 m&lt;div&gt;&lt;br/&gt;&lt;/div&gt;" style="text;html=1;align=center;verticalAlign=middle;whiteSpace=wrap;rounded=0;" vertex="1" parent="ice-WWhvAbH2HElDVY2t-37">
          <mxGeometry x="380" y="160" width="120" height="60" as="geometry" />
        </mxCell>
        <mxCell id="ice-WWhvAbH2HElDVY2t-35" value="" style="endArrow=classic;html=1;rounded=0;dashed=1;entryX=1;entryY=0.5;entryDx=0;entryDy=0;" edge="1" parent="ice-WWhvAbH2HElDVY2t-37" target="ice-WWhvAbH2HElDVY2t-34">
          <mxGeometry width="50" height="50" relative="1" as="geometry">
            <mxPoint x="920" y="20" as="sourcePoint" />
            <mxPoint x="840" y="20" as="targetPoint" />
          </mxGeometry>
        </mxCell>
        <mxCell id="ice-WWhvAbH2HElDVY2t-34" value="" style="ellipse;whiteSpace=wrap;html=1;aspect=fixed;fillColor=none;opacity=20;" vertex="1" parent="ice-WWhvAbH2HElDVY2t-37">
          <mxGeometry x="880" width="40" height="40" as="geometry" />
        </mxCell>
      </root>
    </mxGraphModel>
  </diagram>
</mxfile>
